<svg version="1.0" xmlns="http://www.w3.org/2000/svg" preserveAspectRatio="xMidYMid meet" viewBox="157.13 111.18 319.78 304.25">

<g transform="translate(0.000000,640.000000) scale(0.100000,-0.100000)" fill="#000000" stroke="none">
<path d="M4473 5169 c-70 -67 -200 -185 -288 -262 -88 -78 -194 -173 -235 -213 l-75 -71 -585 -17 c-831 -23 -768 -26 -887 30 -127 58 -245 100 -352 123 -147 32 -179 34 -208 16 -29 -19 -29 -2 2 -295 10 -85 18 -240 19 -345 l1 -190 -69 -175 c-65 -165 -127 -350 -156 -467 -12 -44 -17 -52 -39 -55 -32 -4 -39 -34 -16 -78 14 -27 15 -42 5 -107 -10 -63 -9 -78 2 -90 21 -20 46 -6 57 31 9 29 9 29 10 5 1 -14 12 -41 26 -60 14 -19 44 -66 65 -105 32 -58 69 -100 192 -218 254 -242 330 -294 493 -334 161 -41 249 -46 770 -46 499 -1 500 -1 565 22 74 27 250 117 488 251 218 122 246 142 265 190 19 45 69 342 86 503 7 59 32 208 57 330 103 510 114 610 96 881 -6 95 -16 247 -21 339 -10 163 -56 438 -84 498 -24 51 -48 39 -184 -91z m161 -85 c25 -120 42 -241 49 -347 3 -47 1 -57 -10 -52 -8 3 -23 5 -34 5 -17 0 -19 11 -21 153 -3 149 -3 152 -25 155 -15 2 -25 12 -29 30 -3 15 -10 40 -15 56 -5 15 -6 33 -2 40 31 53 55 87 59 84 2 -3 15 -58 28 -124z m-113 -83 c17 -75 28 -174 44 -389 15 -208 25 -262 44 -262 17 0 26 24 38 105 10 70 11 48 8 -185 -2 -225 -7 -291 -29 -434 -14 -93 -30 -172 -36 -176 -19 -12 -30 -73 -36 -209 -6 -141 -27 -279 -71 -464 -25 -108 -26 -110 -98 -195 -68 -81 -149 -161 -256 -256 -64 -55 -227 -143 -301 -161 -41 -11 -147 -19 -306 -25 -201 -7 -247 -11 -268 -25 -22 -14 -47 -16 -168 -13 -130 4 -150 8 -255 42 -63 21 -126 46 -140 56 -14 10 -45 21 -68 24 -52 7 -242 80 -341 130 -49 24 -80 35 -94 30 -15 -4 -42 9 -102 50 -129 89 -125 84 -147 188 -37 175 -49 264 -59 454 -5 104 -14 245 -20 313 -6 68 -8 134 -4 145 17 62 50 134 73 159 23 25 26 38 33 155 5 70 11 159 14 197 3 45 -2 122 -15 214 -12 80 -19 146 -17 148 2 2 23 -5 47 -16 252 -115 325 -135 291 -80 -13 20 -12 21 30 14 24 -3 85 -18 137 -31 87 -24 95 -24 110 -9 15 15 15 17 0 28 -12 9 143 12 694 13 641 2 712 3 722 18 7 9 19 16 27 16 9 0 21 6 27 14 14 16 -2 32 -38 38 -20 2 -2 21 120 123 79 66 150 124 158 129 9 5 -24 -32 -72 -83 -48 -51 -95 -103 -103 -116 -18 -27 -12 -45 14 -45 19 0 115 95 212 210 109 129 183 210 187 206 3 -2 9 -23 14 -45z m-2496 -300 c86 -19 273 -79 248 -80 -6 -1 -45 6 -85 14 -40 9 -100 15 -133 14 -45 -2 -70 3 -102 19 -23 12 -49 19 -57 16 -11 -4 -16 0 -16 15 0 27 25 27 145 2z m218 -130 c21 -21 -1 -21 -44 -1 l-44 20 39 -4 c22 -3 44 -10 49 -15z m-430 -1585 c12 -10 17 -27 17 -64 0 -53 12 -71 35 -52 16 13 20 7 29 -42 4 -23 3 -38 -3 -38 -18 0 -123 155 -174 258 l-52 102 23 88 c12 48 39 143 60 212 l37 125 5 -288 c5 -260 7 -290 23 -301z m2672 -188 c-12 -71 -30 -93 -113 -142 -43 -25 -83 -46 -87 -46 -5 0 25 35 66 78 41 42 88 94 103 115 16 20 30 37 33 37 3 0 2 -19 -2 -42z m-2330 -254 c99 -63 156 -86 193 -81 22 4 52 -1 84 -14 28 -11 114 -42 192 -70 196 -70 196 -70 86 -64 -275 16 -414 68 -570 215 -68 64 -66 66 15 14z"/>
<path d="M2615 3759 c-213 -225 -269 -275 -340 -305 -36 -15 -46 -40 -21 -50 8 -3 28 2 45 11 40 20 54 12 39 -21 -14 -30 2 -54 24 -37 7 6 24 13 38 16 16 4 38 27 62 64 20 32 54 75 75 95 42 40 319 202 332 193 5 -2 12 -21 16 -41 3 -20 17 -61 30 -91 21 -46 28 -54 48 -51 13 1 31 -4 40 -12 9 -8 23 -20 31 -27 8 -7 16 -17 18 -24 9 -27 38 0 38 36 0 40 -50 258 -82 355 -26 81 -42 100 -84 100 -18 0 -36 5 -39 10 -21 33 -56 5 -270 -221z m245 47 c0 -16 -16 -31 -67 -61 -95 -57 -96 -55 -19 23 38 39 73 69 78 66 4 -3 8 -15 8 -28z m136 -78 c17 -79 17 -116 0 -62 -14 43 -27 139 -19 130 3 -3 11 -33 19 -68z"/>
<path d="M4205 3971 c-27 -17 -66 -56 -294 -296 -41 -43 -75 -87 -77 -99 -2 -12 -6 -31 -9 -42 -8 -26 10 -40 30 -24 7 6 21 10 31 8 11 -2 37 22 76 70 58 70 156 158 240 215 l41 27 56 -113 c31 -63 71 -130 89 -151 17 -20 32 -41 32 -46 0 -6 9 -10 20 -10 15 0 20 7 20 29 0 16 -5 42 -11 58 -6 15 -28 88 -50 162 -21 74 -46 142 -55 150 -8 9 -24 31 -35 49 -22 38 -57 42 -104 13z"/>
<path d="M3703 3153 c-33 -6 -68 -54 -117 -157 -174 -365 -166 -349 -185 -334 -10 7 -63 53 -117 102 -83 74 -100 94 -104 124 -3 19 -13 40 -22 46 -14 9 -25 3 -62 -33 -24 -24 -49 -40 -55 -37 -6 4 -46 -26 -89 -67 -85 -81 -84 -81 -241 -97 -84 -9 -106 -9 -112 2 -5 7 -9 54 -10 103 -1 50 -2 95 -4 100 -1 6 -3 18 -3 28 -1 10 -10 17 -23 17 -21 0 -21 -3 -17 -130 l4 -131 -25 3 -25 3 3 111 c2 96 0 112 -14 118 -35 13 -55 -11 -56 -67 -2 -166 0 -187 17 -216 16 -27 23 -30 83 -34 36 -2 117 -12 179 -21 136 -22 133 -23 268 83 l99 78 51 -46 c55 -51 298 -221 326 -228 12 -4 21 3 29 21 7 14 20 26 29 26 23 0 35 16 50 65 7 22 53 144 103 270 49 127 90 246 91 265 1 36 -8 42 -51 33z m-563 -391 c0 -15 -2 -15 -10 -2 -13 20 -13 33 0 25 6 -3 10 -14 10 -23z m161 -74 c80 -74 83 -90 5 -30 -47 35 -113 110 -90 101 6 -2 44 -34 85 -71z m235 -34 c-8 -21 -15 -31 -15 -22 -1 18 20 70 26 65 2 -2 -3 -21 -11 -43z m-656 -4 c-8 -6 -24 -15 -35 -21 -16 -8 -15 -6 4 10 13 12 28 21 35 21 6 0 4 -5 -4 -10z m570 -106 c0 -18 -14 -18 -29 0 -9 11 -9 15 1 19 17 6 28 -1 28 -19z"/>
</g>
</svg>