<svg version="1.0" xmlns="http://www.w3.org/2000/svg" preserveAspectRatio="xMidYMid meet" viewBox="36.07 61.58 581.85 466.02">

<g transform="translate(0.000000,640.000000) scale(0.100000,-0.100000)" fill="#000000" stroke="none">
<path d="M1855 5780 c-11 -4 -28 -17 -38 -28 -31 -34 -83 -173 -101 -267 -33 -180 -37 -201 -46 -240 -5 -22 -16 -76 -26 -120 -9 -44 -23 -102 -30 -130 -7 -27 -20 -75 -27 -105 -8 -30 -23 -91 -32 -135 -10 -44 -23 -102 -31 -130 -7 -27 -16 -75 -20 -105 -5 -47 -14 -63 -63 -121 -80 -95 -96 -146 -94 -289 1 -93 6 -131 28 -199 23 -70 25 -87 15 -112 -13 -30 -9 -90 8 -149 6 -19 22 -80 37 -135 15 -55 37 -127 50 -160 12 -33 25 -68 29 -77 12 -37 -48 -14 -129 47 -22 17 -53 39 -69 49 -80 51 -101 92 -152 301 -19 76 -69 227 -89 265 -15 28 -81 87 -122 109 -12 6 -45 11 -74 11 -89 0 -143 -59 -173 -189 -8 -33 -16 -64 -20 -69 -3 -5 -39 -12 -80 -15 -83 -6 -106 -15 -154 -61 -89 -83 -116 -213 -67 -320 31 -67 110 -155 186 -207 l58 -39 -52 -100 c-47 -92 -52 -107 -55 -178 -2 -65 1 -83 20 -116 39 -67 67 -81 161 -81 96 1 166 28 257 99 112 88 225 160 262 168 23 5 360 -313 469 -442 97 -117 163 -250 175 -353 3 -28 6 -178 7 -332 2 -277 2 -280 27 -330 16 -30 41 -61 68 -80 39 -27 53 -30 132 -33 80 -4 92 -2 133 22 54 32 183 158 204 201 9 16 25 43 35 58 20 27 21 28 40 10 24 -22 37 -52 49 -118 5 -27 15 -85 23 -128 16 -86 49 -159 104 -226 55 -67 86 -83 152 -75 77 9 135 42 210 119 99 101 119 128 161 210 106 206 159 278 230 315 22 11 39 29 43 43 3 13 45 58 93 100 49 41 108 95 133 118 85 81 202 179 228 193 15 8 68 21 117 31 83 15 214 42 325 67 25 5 108 9 184 8 124 -1 186 -7 426 -41 36 -5 113 -13 173 -19 59 -5 114 -13 121 -17 8 -4 93 -85 189 -179 180 -176 227 -211 324 -245 72 -25 127 -24 208 2 71 24 137 79 161 136 46 108 -33 248 -192 340 -38 23 -85 47 -104 56 -19 8 -60 26 -90 39 -30 14 -67 30 -82 36 -36 15 -35 22 7 51 69 47 150 145 178 215 31 77 33 121 10 214 -41 170 -189 293 -333 278 -30 -3 -69 -8 -86 -12 -30 -6 -32 -4 -54 53 -13 32 -37 74 -52 94 -37 47 -152 114 -228 134 -58 15 -64 15 -98 -2 -64 -31 -109 -138 -146 -343 -10 -52 -24 -122 -32 -156 -8 -33 -14 -72 -14 -86 0 -25 -4 -27 -52 -32 -105 -11 -428 -17 -428 -9 0 5 18 27 40 48 36 35 85 108 117 175 75 155 153 368 153 415 0 18 9 58 20 91 11 32 20 71 20 86 0 15 11 51 23 80 29 65 39 148 26 208 -26 117 -33 183 -29 275 14 321 0 631 -35 760 -22 82 -61 205 -89 280 -22 61 -48 160 -75 287 -5 21 -14 44 -21 53 -15 18 -59 19 -81 2 -14 -11 -89 -112 -89 -121 0 -2 -19 -33 -42 -69 -24 -36 -55 -85 -70 -109 -111 -175 -168 -230 -257 -247 -126 -23 -353 -21 -666 9 -60 6 -213 14 -340 19 -177 6 -252 13 -325 30 -52 12 -103 26 -112 31 -10 6 -24 10 -31 10 -21 0 -146 135 -269 290 -151 189 -260 310 -298 330 -28 14 -65 18 -85 10z m139 -172 c51 -51 148 -165 216 -253 132 -171 216 -259 266 -280 91 -38 277 -63 517 -69 120 -3 291 -14 380 -23 109 -12 241 -18 402 -18 229 0 242 1 291 23 59 27 105 71 169 162 47 68 63 92 159 246 32 52 62 94 66 94 7 0 22 -46 41 -125 13 -51 38 -130 87 -275 21 -63 44 -137 50 -165 33 -144 44 -406 28 -657 -9 -150 -12 -156 -64 -120 -113 78 -308 112 -478 82 -100 -18 -304 -70 -399 -102 -105 -35 -266 -110 -312 -144 -17 -13 -36 -24 -41 -24 -5 0 -26 -13 -47 -30 -26 -20 -49 -30 -72 -30 -78 0 -165 -77 -203 -179 -25 -66 -28 -169 -6 -243 18 -64 79 -161 127 -203 30 -26 55 -40 151 -86 87 -42 351 -68 510 -50 326 36 471 99 686 298 103 95 109 93 67 -17 -9 -25 -23 -70 -31 -100 -17 -68 -56 -165 -96 -245 -118 -232 -357 -440 -623 -541 -252 -96 -332 -119 -461 -133 -287 -33 -426 -39 -454 -21 -13 8 -8 22 28 92 24 46 66 113 93 150 42 57 55 69 91 78 71 17 190 81 241 131 39 37 48 52 45 74 -2 16 -11 33 -21 39 -15 9 -27 1 -78 -52 -109 -112 -218 -144 -307 -88 -44 28 -67 56 -106 133 -28 56 -54 77 -82 66 -10 -4 -45 -34 -78 -67 -77 -77 -154 -117 -241 -123 -86 -7 -147 10 -185 54 -33 37 -33 37 -34 108 -1 43 -4 50 -22 53 -42 6 -74 -85 -50 -141 18 -40 67 -92 107 -113 17 -8 68 -20 114 -26 81 -11 84 -13 96 -42 6 -17 15 -40 19 -51 31 -73 90 -238 90 -249 0 -10 -14 -10 -72 0 -113 20 -177 40 -298 96 -126 58 -322 216 -411 333 -21 27 -59 76 -83 107 -124 157 -246 407 -246 503 0 26 -6 48 -15 55 -8 7 -15 24 -15 37 0 14 -6 39 -14 56 -14 31 -29 107 -21 107 2 0 36 -43 76 -96 162 -214 392 -365 669 -440 96 -27 204 -3 268 59 112 107 128 259 48 472 -19 50 -40 106 -46 125 -7 19 -26 63 -41 96 -15 34 -37 86 -50 115 -27 65 -46 89 -70 89 -10 0 -28 15 -40 33 -13 17 -58 75 -100 127 -152 189 -247 242 -434 244 -55 1 -115 -2 -133 -6 l-33 -8 6 38 c7 39 36 167 90 397 19 77 38 167 45 200 6 33 15 78 20 100 5 22 21 103 36 180 15 77 36 160 47 185 22 48 54 90 70 90 5 0 51 -42 101 -92z m-116 -1175 c50 -19 52 -32 16 -111 -35 -76 -42 -136 -19 -162 10 -11 15 -25 13 -32 -10 -27 27 -305 58 -438 9 -36 36 -107 60 -158 51 -106 88 -140 177 -162 49 -11 62 -11 108 4 53 18 146 72 185 108 30 27 36 5 20 -65 -17 -71 -49 -122 -98 -155 -57 -37 -170 -36 -281 2 -308 106 -590 385 -683 673 -26 82 -26 249 0 318 32 85 138 178 225 196 50 11 168 1 219 -18z m150 -161 c-1 -37 4 -103 10 -147 26 -176 32 -239 32 -320 0 -47 -3 -85 -8 -85 -8 0 -57 125 -71 185 -5 22 -14 61 -20 88 -16 69 -14 178 5 222 10 24 13 51 9 71 -7 40 12 79 32 63 7 -7 12 -35 11 -77z m147 -143 c2 -24 7 -64 11 -89 4 -28 3 -41 -3 -35 -11 12 -43 142 -43 176 0 43 32 -4 35 -52z m2248 24 c116 -37 221 -115 256 -188 34 -72 27 -132 -28 -244 -45 -94 -52 -103 -146 -197 -203 -203 -350 -278 -607 -309 -171 -20 -286 -19 -408 5 -169 34 -250 75 -316 159 -53 68 -74 125 -74 204 0 86 17 137 46 137 12 0 29 3 38 6 14 5 71 -73 148 -207 35 -59 113 -146 149 -164 53 -28 110 -19 178 26 75 50 228 219 284 314 40 69 107 246 107 284 0 8 19 46 43 85 24 39 46 79 50 89 6 15 21 17 117 17 76 0 128 -5 163 -17z m-391 -9 c4 -3 -3 -23 -15 -45 -14 -26 -28 -39 -41 -39 -24 0 -86 35 -86 49 0 5 26 15 58 23 70 19 77 20 84 12z m-238 -119 c30 -60 40 -145 19 -152 -16 -6 -57 38 -78 85 -10 20 -26 49 -37 64 l-19 28 33 14 c49 22 52 20 82 -39z m-173 -47 c6 -24 22 -70 34 -103 75 -190 50 -204 -52 -31 -26 43 -57 85 -70 93 -21 14 -25 14 -43 -2 -11 -10 -20 -27 -20 -38 0 -21 60 -201 92 -275 21 -50 21 -52 10 -52 -5 0 -17 17 -28 38 -12 20 -47 87 -79 147 -33 61 -63 112 -67 113 -16 7 -7 30 20 48 38 26 175 103 184 104 4 0 12 -19 19 -42z m284 22 c3 -5 15 -10 26 -10 11 0 22 -6 25 -14 6 -17 -20 -115 -48 -176 -25 -56 -85 -150 -95 -150 -10 0 -67 150 -60 157 3 2 17 -3 30 -12 15 -9 40 -15 59 -13 49 5 64 42 50 127 -5 36 -13 74 -17 84 -5 12 -2 17 8 17 9 0 19 -4 22 -10z m-1571 -50 c32 -48 110 -224 131 -292 l14 -49 -35 -39 c-20 -22 -63 -58 -96 -80 -50 -33 -69 -40 -110 -40 -50 0 -94 17 -117 44 -11 13 -11 19 0 32 8 10 16 49 19 88 l5 71 25 -38 c26 -39 48 -49 109 -51 32 -1 37 2 45 31 8 26 14 31 31 27 13 -3 27 1 35 11 12 15 10 23 -13 65 -28 49 -87 216 -87 245 0 26 16 17 44 -25z m-1375 6 c18 -14 39 -33 46 -44 24 -33 64 -145 79 -222 26 -130 52 -224 74 -266 21 -41 81 -102 122 -124 13 -7 41 -26 64 -44 49 -37 178 -106 199 -106 8 0 34 -32 58 -70 287 -462 597 -694 999 -750 66 -9 78 -14 103 -42 15 -18 27 -35 27 -39 0 -3 10 -11 23 -16 31 -14 77 5 96 41 8 14 24 28 35 31 12 2 107 6 211 9 271 7 422 32 585 93 337 129 375 148 506 259 48 41 83 62 119 71 78 21 370 45 457 38 87 -8 142 5 159 37 6 11 13 53 14 92 3 64 13 130 44 296 6 30 26 84 44 120 l33 65 59 -1 c70 -1 125 -25 183 -81 38 -37 51 -67 79 -183 11 -45 37 -49 106 -20 64 28 159 23 213 -11 103 -63 160 -226 123 -349 -18 -59 -77 -129 -162 -193 -43 -32 -82 -70 -88 -84 -14 -38 10 -68 73 -88 102 -32 243 -88 270 -107 14 -10 29 -18 32 -18 4 0 29 -17 57 -37 60 -45 116 -145 105 -188 -11 -45 -72 -101 -134 -124 -51 -19 -64 -20 -112 -11 -30 7 -70 18 -87 26 -74 34 -248 194 -373 345 -19 23 -45 49 -58 57 -35 23 -144 41 -247 42 -49 0 -117 5 -150 10 -98 16 -261 31 -405 36 -121 4 -146 2 -240 -21 -58 -14 -119 -30 -136 -35 -17 -6 -41 -10 -54 -10 -13 0 -51 -5 -84 -11 -127 -23 -141 -32 -300 -191 -82 -82 -195 -183 -250 -226 -148 -113 -217 -185 -260 -273 -125 -251 -247 -395 -368 -431 -37 -11 -40 -10 -76 25 -67 66 -95 136 -130 330 -15 79 -27 119 -47 147 -16 23 -30 59 -32 85 -10 88 -63 87 -114 -2 -17 -32 -40 -72 -50 -90 -47 -84 -74 -117 -145 -178 -75 -64 -78 -65 -133 -65 -136 2 -187 88 -170 285 4 50 8 171 8 271 1 169 0 182 -19 199 -11 10 -20 24 -20 30 0 22 -51 129 -93 195 -54 85 -140 184 -312 356 -77 77 -161 164 -186 192 -38 42 -52 52 -79 52 -44 0 -114 -39 -245 -136 -149 -110 -216 -144 -289 -144 -32 0 -66 4 -76 10 -40 22 -65 121 -41 168 5 9 19 37 31 62 13 25 31 54 40 65 68 79 63 122 -19 171 -135 81 -221 188 -221 274 0 60 44 147 90 178 30 20 46 23 105 21 39 -1 78 -1 87 0 23 1 54 63 63 126 8 57 37 119 62 134 32 19 87 12 122 -13z m2371 -125 c0 -5 23 -57 51 -115 28 -59 49 -109 47 -112 -16 -15 -136 205 -123 226 8 12 25 13 25 1z m393 -230 c15 -8 27 -19 27 -25 0 -18 -119 -127 -156 -142 -35 -15 -94 -11 -94 6 0 10 46 27 97 35 77 12 83 49 30 165 -20 41 -33 78 -31 82 3 4 27 -18 53 -50 26 -31 60 -63 74 -71z m-864 -739 c22 -44 94 -118 122 -127 27 -9 24 -24 -20 -102 -22 -37 -64 -115 -94 -173 -64 -122 -79 -136 -109 -100 -33 41 -74 129 -111 241 -55 166 -57 148 27 192 40 21 91 53 112 72 22 19 42 34 46 35 4 0 16 -17 27 -38z"/>
</g>
</svg>