<svg version="1.0" xmlns="http://www.w3.org/2000/svg" preserveAspectRatio="xMidYMid meet" viewBox="125.88 89.98 379.23 493.72">

<g transform="translate(0.000000,640.000000) scale(0.100000,-0.100000)" fill="#000000" stroke="none">
<path d="M1480 5453 c-51 -54 -70 -84 -70 -111 0 -11 -11 -40 -25 -66 -14 -26 -25 -62 -25 -81 0 -19 -4 -37 -10 -40 -6 -4 -10 -53 -10 -114 0 -79 -4 -112 -15 -127 -8 -10 -15 -41 -15 -67 0 -27 -6 -54 -14 -62 -17 -17 -14 -231 3 -248 7 -7 11 -55 11 -123 0 -87 3 -114 15 -124 11 -9 15 -34 15 -101 0 -48 5 -91 10 -94 6 -3 10 -22 10 -41 0 -19 4 -42 9 -52 5 -9 14 -34 20 -54 11 -34 9 -43 -18 -100 -17 -35 -31 -72 -31 -84 0 -12 -7 -27 -15 -34 -8 -7 -15 -22 -15 -34 0 -11 -7 -29 -14 -39 -9 -11 -13 -36 -11 -66 2 -28 -2 -59 -11 -76 -21 -40 -20 -247 2 -280 9 -13 13 -28 10 -33 -3 -5 1 -18 9 -28 8 -10 15 -25 15 -33 0 -8 7 -22 16 -32 19 -21 11 -39 -17 -39 -23 0 -26 -28 -4 -37 9 -3 32 -40 52 -82 19 -42 42 -84 51 -94 17 -19 36 -50 51 -84 16 -34 122 -143 140 -143 9 0 61 -45 116 -100 55 -55 104 -100 108 -100 5 0 22 -11 39 -25 16 -14 35 -25 43 -25 14 0 25 -21 25 -51 0 -14 7 -19 30 -19 17 0 65 -17 108 -37 42 -21 81 -37 85 -35 4 1 21 -5 37 -13 18 -9 56 -15 99 -15 38 0 72 -4 76 -9 12 -20 70 -41 115 -41 25 0 51 -5 56 -10 6 -6 24 -13 40 -16 16 -3 33 -9 38 -15 6 -5 45 -9 87 -9 43 0 81 -4 84 -10 3 -5 41 -10 84 -10 58 0 82 -4 91 -15 9 -11 34 -15 101 -15 48 0 91 -5 94 -10 4 -6 76 -10 182 -10 149 0 179 3 195 16 16 16 18 15 24 0 4 -10 2 -22 -5 -29 -15 -15 -14 -42 4 -57 20 -16 19 -51 -2 -88 -16 -28 -16 -31 0 -55 9 -15 17 -44 17 -66 0 -22 5 -43 10 -46 6 -3 10 -21 10 -39 0 -18 7 -41 15 -52 8 -10 15 -37 15 -60 0 -24 10 -61 25 -88 14 -26 25 -55 25 -65 0 -26 37 -98 55 -104 9 -4 15 -19 15 -36 0 -16 4 -32 9 -36 12 -7 41 -64 41 -80 0 -7 7 -18 15 -25 8 -7 15 -25 15 -41 0 -15 5 -31 10 -34 6 -3 10 -50 10 -106 0 -106 -6 -123 -59 -181 -25 -29 -83 -39 -96 -18 -3 6 -16 10 -28 10 -12 0 -31 7 -41 15 -11 8 -28 15 -38 15 -21 0 -51 16 -91 48 -16 12 -34 22 -41 22 -6 0 -42 30 -79 68 -49 49 -67 75 -67 94 0 15 -4 30 -10 33 -5 3 -17 23 -26 43 -8 20 -20 45 -25 54 -5 10 -9 30 -9 45 0 14 -8 44 -17 64 -15 33 -23 39 -50 39 l-33 0 0 -123 c0 -93 -4 -128 -15 -143 -8 -10 -15 -36 -15 -56 0 -20 -4 -40 -10 -43 -6 -3 -10 -24 -10 -46 0 -46 -17 -76 -79 -142 -49 -52 -121 -91 -150 -82 -9 3 -26 -2 -37 -10 -13 -10 -44 -14 -99 -15 -67 0 -89 4 -137 27 -57 28 -88 68 -88 113 0 21 -31 80 -42 80 -5 0 -8 31 -8 69 0 50 -4 72 -15 81 -13 11 -16 36 -14 132 1 71 -3 123 -9 131 -7 8 -7 18 -2 27 6 8 10 51 10 96 0 55 5 86 15 100 9 12 14 42 15 80 0 42 5 65 15 74 11 9 15 33 15 86 0 40 5 76 10 79 6 3 10 19 10 35 0 16 4 32 10 35 13 8 13 98 1 110 -5 6 -11 21 -13 35 -3 21 -8 25 -38 25 l-35 0 -3 -55 c-1 -30 3 -65 10 -78 10 -19 8 -26 -10 -45 -19 -20 -22 -35 -22 -100 0 -42 -4 -79 -10 -82 -5 -3 -10 -30 -10 -59 0 -35 -5 -58 -15 -66 -11 -9 -15 -34 -15 -101 0 -48 -4 -91 -10 -94 -5 -3 -10 -37 -10 -76 0 -39 4 -69 10 -69 6 0 10 -53 10 -138 0 -106 3 -143 15 -158 8 -10 15 -40 15 -66 0 -26 4 -49 9 -52 5 -3 11 -20 14 -38 12 -77 26 -106 68 -146 24 -23 53 -42 65 -42 11 0 25 -5 32 -12 19 -19 271 -20 299 -2 12 8 42 14 66 14 33 0 49 6 67 25 13 14 31 25 40 25 20 0 65 47 74 76 4 12 15 29 26 39 15 13 20 31 20 65 0 25 5 51 12 58 6 6 14 31 17 54 8 55 32 62 55 17 9 -18 16 -38 16 -44 0 -17 86 -95 104 -95 8 0 28 -16 45 -35 17 -19 40 -35 51 -35 12 0 41 -11 66 -25 25 -14 55 -25 67 -25 12 0 31 -7 41 -15 14 -11 46 -15 108 -15 83 0 89 1 123 31 24 22 35 40 35 59 0 15 7 33 15 40 12 10 15 41 15 164 -1 142 -2 153 -25 191 -14 22 -27 47 -31 55 -3 8 -10 23 -15 32 -5 10 -9 27 -9 37 0 11 -4 23 -10 26 -5 3 -10 20 -10 36 0 19 -9 39 -25 55 -14 14 -25 31 -25 39 0 8 -4 16 -9 20 -5 3 -23 34 -40 68 -23 48 -31 77 -31 120 0 31 -4 59 -10 62 -5 3 -10 23 -10 43 0 21 -6 46 -13 57 -14 21 -23 210 -12 245 4 11 12 20 19 20 8 0 19 6 25 14 13 16 56 25 151 33 36 2 72 11 81 19 9 8 20 14 25 12 16 -5 89 29 108 51 12 13 31 21 52 21 39 0 126 43 177 87 20 18 43 33 50 33 7 0 30 18 51 40 21 22 44 40 52 40 8 0 14 4 14 9 0 6 18 31 40 56 23 26 40 57 40 70 0 13 5 27 10 30 6 3 10 15 10 25 0 10 11 27 24 37 13 10 26 28 30 40 4 11 15 28 26 38 11 10 20 28 20 41 0 30 38 94 56 94 8 0 14 6 14 13 0 8 18 32 40 55 25 25 40 50 40 66 0 13 5 28 10 31 6 3 10 14 10 24 0 10 7 24 15 31 8 7 15 25 15 41 0 15 4 31 10 34 6 3 10 16 10 29 0 12 7 31 15 42 8 10 15 36 15 56 0 20 5 40 10 43 6 4 10 72 10 170 0 98 -4 166 -10 170 -5 3 -10 23 -10 43 0 21 -7 48 -16 60 -15 22 -15 25 5 46 43 46 61 96 61 173 0 39 5 75 10 78 6 3 10 24 10 45 0 21 4 42 10 45 6 3 10 24 10 45 0 21 7 45 15 54 9 9 15 34 15 63 0 27 7 57 16 68 21 29 20 658 -2 676 -8 6 -14 20 -14 31 0 29 -60 148 -75 148 -7 0 -18 7 -25 16 -33 38 -90 54 -201 54 -61 0 -110 -4 -114 -10 -3 -5 -23 -10 -44 -10 -27 0 -46 -7 -65 -25 -19 -18 -38 -25 -66 -25 -21 0 -41 -4 -45 -9 -9 -15 -66 -41 -88 -41 -11 0 -28 -6 -36 -13 -9 -8 -32 -20 -51 -27 -19 -8 -48 -24 -63 -37 -16 -13 -39 -23 -51 -23 -12 0 -33 -11 -46 -25 -13 -14 -31 -25 -40 -25 -9 0 -38 -22 -64 -50 -47 -50 -47 -50 -112 -50 -51 0 -75 6 -110 25 -25 14 -55 25 -67 25 -13 0 -28 5 -34 11 -6 6 -33 11 -61 12 -28 1 -57 8 -64 15 -6 6 -28 12 -47 12 -20 0 -45 7 -55 15 -29 22 -619 21 -656 0 -14 -8 -39 -14 -55 -15 -17 0 -35 -4 -40 -9 -6 -5 -25 -12 -44 -15 -18 -2 -38 -9 -44 -15 -18 -18 -36 -12 -43 14 -9 37 -59 75 -99 75 -26 0 -45 11 -86 50 -30 27 -59 50 -65 50 -6 0 -21 11 -34 25 -13 14 -30 25 -37 25 -8 0 -17 8 -20 18 -9 24 -84 102 -99 102 -6 0 -17 7 -24 15 -21 25 -192 105 -226 105 -17 0 -37 7 -44 15 -10 12 -38 15 -134 15 l-122 0 -44 -47z m225 -43 c3 -5 23 -10 44 -10 20 0 41 -4 46 -9 6 -6 23 -12 39 -15 16 -3 38 -14 50 -24 12 -11 42 -29 68 -42 25 -12 81 -58 124 -101 43 -44 84 -79 90 -79 7 0 26 -11 42 -25 17 -14 37 -25 45 -25 34 0 138 -64 203 -126 l69 -65 38 21 c22 11 49 20 62 20 12 0 28 7 35 15 8 9 29 15 56 15 23 0 46 5 49 10 4 6 117 10 305 10 188 0 301 -4 305 -10 3 -5 28 -10 54 -10 26 0 56 -7 67 -15 10 -8 36 -15 56 -15 20 0 40 -4 43 -10 3 -5 19 -10 35 -10 16 0 31 -4 35 -9 9 -15 66 -41 89 -41 12 0 30 -7 40 -15 13 -10 44 -15 88 -15 64 0 69 2 78 25 5 14 15 25 23 25 7 0 35 23 62 50 27 28 55 50 63 50 7 0 37 23 66 50 46 43 58 50 94 50 28 0 63 11 108 35 42 23 79 35 104 35 21 0 41 4 45 9 9 15 66 41 90 41 13 0 28 7 35 15 9 10 32 15 74 15 59 0 64 -2 101 -40 21 -22 45 -40 52 -40 8 0 17 -10 22 -22 5 -13 18 -32 30 -42 12 -11 21 -31 21 -47 0 -15 5 -31 10 -34 14 -8 14 -552 0 -560 -6 -3 -10 -38 -10 -76 0 -56 -5 -79 -25 -115 -15 -26 -25 -61 -25 -83 0 -22 -6 -44 -15 -51 -9 -7 -15 -29 -15 -51 0 -21 -4 -41 -10 -44 -6 -3 -10 -24 -10 -45 0 -53 -15 -58 -35 -13 -10 21 -22 49 -28 63 -11 24 -33 55 -90 125 -16 19 -53 46 -82 61 -30 14 -59 32 -66 40 -6 8 -17 14 -24 14 -6 0 -20 9 -30 20 -10 11 -42 31 -72 44 -29 14 -56 32 -59 41 -3 8 -14 15 -23 15 -9 0 -25 7 -35 15 -11 8 -41 15 -66 15 -25 0 -51 5 -56 10 -7 7 -68 9 -175 6 -194 -5 -267 -13 -294 -32 -11 -8 -29 -14 -42 -14 -12 0 -25 -4 -28 -10 -3 -5 -14 -10 -24 -10 -10 0 -37 -20 -60 -46 -23 -25 -53 -49 -67 -54 -13 -5 -24 -16 -24 -23 0 -7 -11 -24 -25 -37 -14 -13 -25 -29 -25 -35 0 -6 -23 -56 -50 -110 -32 -61 -48 -104 -45 -116 4 -10 -1 -29 -9 -41 -9 -12 -16 -39 -16 -59 0 -20 -7 -42 -15 -49 -12 -10 -15 -40 -15 -155 0 -115 3 -145 15 -155 10 -8 15 -31 15 -64 1 -29 7 -59 16 -71 9 -12 12 -30 9 -46 -4 -17 -1 -30 10 -39 9 -8 15 -29 15 -56 0 -23 5 -46 10 -49 6 -3 10 -17 10 -30 0 -13 11 -37 25 -53 14 -17 25 -34 25 -39 0 -5 18 -27 40 -48 22 -21 40 -43 40 -48 0 -6 16 -29 35 -53 25 -31 35 -52 35 -78 0 -30 4 -37 25 -42 13 -3 40 -26 60 -50 33 -40 41 -44 79 -44 27 0 48 -6 56 -15 7 -8 25 -15 41 -15 15 0 31 -4 34 -10 4 -6 102 -10 260 -10 158 0 256 4 260 10 3 6 23 10 44 10 27 0 44 7 61 25 12 13 26 22 31 20 8 -6 -17 -61 -32 -70 -5 -4 -9 -13 -9 -22 0 -8 -18 -32 -40 -53 -22 -21 -40 -45 -40 -54 0 -8 -24 -31 -52 -49 -29 -19 -59 -41 -67 -50 -7 -10 -19 -17 -25 -17 -7 0 -25 -13 -41 -30 -15 -16 -58 -44 -94 -62 -36 -17 -80 -42 -97 -55 -17 -13 -44 -23 -60 -23 -16 0 -40 -7 -53 -16 -16 -12 -37 -15 -72 -12 -32 3 -55 0 -67 -8 -9 -7 -28 -14 -43 -14 -14 0 -30 -5 -36 -11 -5 -5 -46 -10 -90 -10 -54 0 -86 -5 -99 -14 -28 -21 -331 -21 -358 0 -13 10 -44 15 -92 15 -40 0 -76 5 -79 10 -3 6 -40 10 -81 10 -53 0 -80 4 -90 15 -8 8 -31 14 -50 13 -19 -1 -40 4 -46 10 -7 7 -46 12 -99 12 -63 0 -90 4 -99 14 -6 8 -18 12 -26 9 -8 -3 -25 2 -39 11 -13 9 -40 16 -59 16 -19 0 -38 5 -41 10 -3 6 -18 10 -33 10 -15 0 -36 7 -46 15 -11 8 -28 15 -37 15 -44 0 -179 87 -179 116 0 7 -15 21 -32 32 -18 12 -51 35 -73 51 -22 17 -53 39 -69 49 -16 9 -44 29 -61 45 -18 15 -44 27 -57 27 -17 0 -47 24 -104 82 -58 60 -72 79 -54 74 14 -4 37 -10 53 -13 15 -3 27 -9 27 -14 0 -5 20 -9 44 -9 26 0 48 -6 56 -15 18 -22 336 -21 364 0 12 9 42 15 73 15 30 0 67 7 82 15 16 8 31 12 33 9 3 -2 34 10 69 28 64 31 202 160 214 198 3 10 14 25 25 35 11 10 20 24 20 30 0 7 15 28 32 47 67 72 68 77 68 318 0 181 -3 220 -15 230 -9 7 -15 29 -15 51 0 21 -4 41 -10 44 -5 3 -10 29 -10 56 0 29 -7 60 -16 74 -10 15 -14 34 -10 49 4 15 0 28 -9 36 -8 7 -15 25 -15 41 0 15 -4 31 -10 34 -5 3 -10 13 -10 22 0 26 -153 203 -175 203 -7 0 -18 7 -25 15 -20 24 -189 105 -219 105 -14 1 -37 7 -51 15 -35 20 -170 20 -196 0 -10 -8 -36 -15 -56 -15 -20 0 -40 -4 -43 -10 -3 -5 -21 -10 -39 -10 -21 0 -75 -21 -142 -56 -100 -51 -110 -59 -130 -101 -29 -59 -83 -115 -108 -111 -25 4 -37 45 -43 147 -3 41 -11 84 -19 97 -11 16 -14 50 -13 129 1 67 -3 111 -10 118 -14 14 -15 104 -1 112 6 3 10 34 10 69 0 39 5 69 15 82 11 14 14 48 15 131 0 63 4 114 10 118 6 3 10 19 10 34 0 16 7 34 15 41 8 7 15 25 15 40 0 16 3 30 8 32 4 2 19 28 34 59 39 81 76 109 143 109 30 0 57 -4 60 -10z m2409 -1055 c11 -8 39 -15 63 -15 27 0 59 -9 87 -25 25 -14 53 -25 64 -25 10 0 28 -9 40 -20 12 -11 26 -20 32 -20 5 0 37 -25 70 -55 33 -30 63 -55 68 -55 4 0 42 -34 85 -76 59 -59 77 -83 77 -105 0 -15 5 -31 10 -34 6 -3 10 -28 10 -54 0 -31 5 -53 15 -61 10 -8 15 -31 15 -72 0 -35 6 -68 15 -81 12 -18 13 -43 5 -147 -14 -181 -21 -234 -31 -245 -5 -5 -9 -30 -9 -55 0 -25 -7 -55 -15 -66 -8 -10 -15 -28 -15 -38 0 -11 -6 -27 -14 -35 -26 -29 -63 -106 -58 -120 6 -17 -176 -201 -199 -201 -9 0 -22 -7 -29 -15 -7 -9 -29 -15 -51 -15 -21 0 -41 -4 -44 -10 -4 -6 -75 -10 -180 -10 -105 0 -176 4 -180 10 -3 6 -19 10 -34 10 -15 0 -36 7 -47 15 -10 8 -33 15 -51 15 -17 0 -45 8 -62 17 -24 15 -31 25 -33 58 -2 29 -8 41 -21 43 -20 4 -76 60 -77 77 0 6 -27 37 -60 70 -33 33 -60 67 -60 77 0 9 -4 19 -9 23 -18 11 -71 132 -71 163 0 17 -4 34 -10 37 -5 3 -10 23 -10 44 0 22 -6 44 -15 51 -10 8 -15 30 -15 64 0 29 -5 57 -11 63 -21 21 2 293 27 314 8 6 14 29 14 50 0 21 10 55 21 76 12 21 32 59 45 84 13 26 31 52 39 59 8 7 15 18 15 25 0 42 186 175 245 175 13 0 27 5 30 10 3 6 28 10 54 10 26 0 56 7 67 15 13 10 44 14 99 14 55 0 86 -4 99 -14z m-1973 -35 c20 0 44 -7 55 -15 10 -8 28 -15 40 -15 11 0 29 -9 39 -20 10 -11 24 -20 31 -20 7 0 26 -11 42 -25 17 -14 33 -25 37 -25 4 0 36 -25 71 -57 50 -43 73 -73 99 -128 19 -40 35 -79 35 -88 0 -9 5 -19 10 -22 6 -3 10 -23 10 -43 0 -20 7 -46 15 -56 8 -11 15 -37 15 -57 0 -21 5 -41 10 -44 6 -3 10 -34 10 -68 1 -36 6 -69 14 -80 20 -26 22 -266 2 -292 -9 -11 -16 -30 -16 -42 0 -14 -23 -44 -60 -80 -33 -31 -60 -64 -60 -71 0 -22 -170 -191 -209 -207 -18 -8 -48 -15 -65 -15 -17 0 -40 -7 -50 -15 -11 -8 -41 -15 -66 -15 -25 0 -51 -5 -57 -11 -6 -6 -51 -9 -124 -6 -124 5 -204 18 -221 35 -7 7 -24 12 -39 12 -15 0 -31 5 -34 10 -3 6 -15 10 -25 10 -52 0 -169 91 -170 132 0 9 -4 18 -8 20 -9 3 -82 148 -82 161 0 5 15 7 33 5 31 -3 32 -4 35 -58 2 -30 7 -57 11 -60 4 -3 14 -18 22 -34 19 -41 65 -63 140 -70 115 -9 158 -18 170 -32 17 -21 346 -20 373 1 11 8 30 15 42 15 13 0 26 5 29 10 3 6 19 10 34 10 15 0 36 9 46 20 10 11 26 22 37 26 10 3 30 16 43 30 13 13 31 24 39 24 8 0 17 8 21 19 3 10 14 26 25 36 11 10 20 30 20 44 0 14 7 35 15 45 8 11 15 35 15 53 0 18 11 52 25 77 30 53 35 157 10 190 -10 14 -15 45 -15 102 0 46 -4 86 -10 89 -5 3 -10 33 -10 65 0 61 -24 127 -77 212 -13 21 -23 44 -23 51 0 7 -11 24 -25 37 -14 13 -25 29 -25 35 0 29 -97 95 -139 95 -10 0 -24 7 -31 15 -10 12 -38 15 -135 15 -97 0 -125 -3 -135 -15 -7 -9 -29 -15 -51 -15 -21 0 -41 -4 -44 -10 -3 -5 -13 -10 -22 -10 -8 0 -38 -22 -66 -50 -28 -27 -56 -50 -63 -50 -7 0 -22 -11 -35 -25 -13 -13 -29 -25 -36 -25 -10 0 -38 -38 -72 -98 -9 -17 -16 -21 -23 -14 -15 15 46 136 80 159 50 33 92 53 112 53 15 0 20 7 20 28 0 60 133 142 230 142 32 0 63 7 74 15 17 13 22 13 36 0 9 -8 32 -15 51 -15z m-611 -430 c0 -5 -4 -10 -10 -10 -5 0 -10 5 -10 10 0 6 5 10 10 10 6 0 10 -4 10 -10z m-146 -326 c11 -28 6 -98 -9 -124 -19 -33 -19 -99 0 -137 8 -17 12 -38 9 -47 -9 -24 -24 -9 -24 23 0 16 -7 34 -15 41 -20 17 -20 109 0 136 8 11 14 41 15 72 0 51 12 68 24 36z m3460 -195 c-3 -5 -10 -7 -15 -3 -5 3 -7 10 -3 15 3 5 10 7 15 3 5 -3 7 -10 3 -15z"/>
<path d="M2453 2673 c-7 -2 -13 -17 -13 -33 0 -25 8 -32 83 -69 45 -23 91 -41 100 -41 10 0 28 -6 40 -14 13 -8 43 -13 72 -12 28 1 59 -3 70 -11 24 -16 630 -19 640 -3 3 6 16 10 29 10 12 0 31 7 42 15 10 8 31 15 46 15 29 0 43 25 32 54 -5 13 -20 16 -74 16 -38 0 -72 -4 -75 -10 -3 -5 -32 -10 -63 -10 -31 -1 -68 -7 -82 -15 -19 -11 -68 -14 -210 -14 -142 0 -191 3 -210 14 -14 8 -51 14 -82 15 -31 0 -60 5 -63 10 -3 6 -19 10 -35 10 -16 0 -32 4 -35 10 -3 5 -23 17 -43 26 -20 9 -49 22 -64 30 -25 14 -80 18 -105 7z"/>
<path d="M3865 4261 c-3 -6 -23 -11 -43 -11 -20 0 -46 -7 -56 -15 -11 -8 -34 -15 -52 -15 -26 0 -44 -11 -88 -55 -55 -53 -69 -88 -46 -111 11 -11 -11 -77 -30 -89 -5 -3 -10 -19 -10 -35 0 -16 -4 -32 -10 -35 -5 -3 -10 -19 -10 -35 0 -16 -4 -32 -10 -35 -5 -3 -10 -28 -10 -54 0 -26 -7 -56 -15 -67 -8 -10 -14 -32 -14 -49 0 -16 6 -39 14 -49 8 -11 15 -41 15 -67 0 -26 5 -51 10 -54 6 -3 10 -42 10 -85 0 -43 5 -82 10 -85 6 -3 10 -15 10 -25 0 -11 25 -67 55 -125 30 -59 55 -113 55 -121 0 -38 84 -144 115 -144 6 0 29 -18 50 -40 34 -34 45 -40 82 -40 24 0 43 -4 43 -10 0 -5 17 -10 38 -10 20 -1 48 -7 62 -15 36 -20 225 -20 264 0 15 8 42 15 58 15 18 0 43 11 60 25 16 14 35 25 42 25 7 0 23 11 36 25 13 14 28 25 34 25 6 0 20 20 30 43 10 23 29 53 40 67 12 14 28 39 35 55 8 17 24 51 37 76 15 28 24 64 24 91 0 24 4 48 10 54 5 5 11 64 14 131 4 98 2 126 -10 137 -17 17 -19 67 -3 83 7 7 9 27 6 50 -14 88 -20 113 -28 119 -5 3 -9 15 -9 26 0 12 -11 36 -25 54 -14 18 -25 36 -25 41 0 13 -114 123 -127 123 -6 0 -16 7 -24 16 -7 9 -33 25 -58 37 -25 11 -70 42 -99 69 -30 27 -63 48 -76 48 -12 0 -28 6 -34 12 -23 23 -335 48 -347 29z"/>
</g>
</svg>