<svg version="1.0" xmlns="http://www.w3.org/2000/svg" preserveAspectRatio="xMidYMid meet" viewBox="75.75 116.25 475.62 433.12">

<g transform="translate(0.000000,640.000000) scale(0.100000,-0.100000)" fill="#000000" stroke="none">
<path d="M2611 5229 c-163 -19 -276 -64 -446 -177 -114 -75 -281 -235 -339 -325 -21 -32 -73 -127 -116 -211 l-78 -153 -42 28 c-24 16 -61 30 -88 33 -26 3 -153 26 -282 51 -129 25 -253 48 -275 51 -85 12 -164 -33 -185 -105 -19 -67 76 -606 186 -1062 l45 -187 -27 -78 c-23 -69 -26 -93 -25 -189 3 -227 32 -419 97 -633 117 -385 245 -602 465 -786 179 -150 483 -319 729 -406 417 -147 837 -205 1135 -157 435 70 956 336 1475 753 284 228 410 365 563 612 114 184 133 247 88 283 -51 41 -106 13 -131 -66 -43 -135 -175 -350 -302 -492 -223 -249 -657 -562 -1023 -739 -222 -107 -281 -129 -444 -170 -302 -74 -521 -74 -920 2 -177 33 -326 84 -550 184 -257 117 -445 238 -580 373 -98 99 -140 158 -209 294 -139 273 -219 575 -210 792 l3 84 35 2 c40 3 80 43 80 81 0 13 -12 53 -26 87 -18 41 -26 78 -25 109 1 39 -4 53 -27 80 -24 27 -36 60 -62 173 -18 77 -41 176 -51 220 -48 207 -81 423 -86 578 l-6 157 31 0 c56 0 235 -30 349 -59 142 -35 223 -83 223 -132 0 -76 65 -124 132 -96 18 8 38 20 45 28 13 16 81 185 108 269 10 30 36 91 57 135 98 197 217 332 405 459 174 118 295 142 643 132 366 -11 633 -64 1080 -214 233 -79 295 -104 433 -174 81 -42 98 -54 94 -70 -9 -31 12 -87 40 -105 14 -10 42 -35 62 -56 28 -29 48 -40 79 -44 38 -5 45 -2 77 30 41 41 47 89 18 139 l-18 29 70 67 c39 37 94 102 123 145 29 42 56 77 60 77 10 0 4 -872 -8 -1195 -6 -154 -16 -288 -25 -327 -16 -76 -10 -106 27 -132 55 -39 123 -3 140 74 5 25 13 304 18 620 9 585 17 764 46 1017 14 133 14 144 -2 178 -27 57 -101 83 -157 54 -49 -26 -136 -110 -264 -256 -74 -84 -137 -153 -139 -153 -3 0 -26 11 -52 24 -56 28 -432 169 -587 219 -528 172 -1124 264 -1454 226z"/>
<path d="M3742 4074 c-24 -9 -69 -40 -102 -70 -74 -69 -201 -236 -245 -323 -59 -118 -70 -170 -69 -326 1 -165 6 -180 97 -333 36 -59 67 -118 70 -132 7 -27 88 -120 105 -120 17 0 31 116 36 301 7 204 20 261 74 321 60 66 118 88 237 88 162 0 279 -38 360 -117 57 -56 78 -107 83 -203 4 -83 3 -87 -37 -165 -48 -95 -113 -176 -200 -250 -34 -29 -74 -69 -87 -88 -13 -19 -41 -43 -63 -54 -22 -10 -41 -21 -41 -24 0 -7 119 -36 186 -45 65 -8 165 17 219 55 90 63 154 178 215 381 63 208 86 423 59 552 -17 79 -71 175 -141 249 -35 36 -76 80 -91 97 -16 18 -41 35 -55 38 -15 4 -70 35 -122 70 -129 85 -196 107 -335 111 -81 2 -121 -2 -153 -13z"/>
<path d="M2555 3720 c-11 -5 -49 -9 -85 -10 -36 0 -83 -8 -105 -17 -22 -8 -67 -16 -100 -17 -33 -1 -67 -6 -75 -11 -8 -5 -43 -12 -76 -16 -130 -13 -212 -80 -287 -234 -27 -54 -65 -146 -84 -204 -33 -96 -37 -119 -41 -243 -3 -88 0 -155 7 -185 18 -73 88 -211 117 -229 14 -9 69 -33 122 -52 53 -19 126 -45 162 -58 36 -13 82 -24 104 -24 l39 0 -43 46 c-68 74 -85 122 -84 239 0 84 5 112 28 175 38 100 68 150 121 199 52 48 85 57 231 66 91 5 118 4 150 -10 76 -32 114 -87 134 -196 20 -107 -6 -299 -52 -391 -10 -21 -16 -38 -13 -38 26 0 103 56 165 119 83 85 148 187 180 283 58 174 22 454 -75 581 -43 56 -156 132 -241 162 -36 12 -73 30 -82 38 -19 17 -66 37 -85 36 -7 0 -21 -4 -32 -9z"/>
<path d="M3380 2440 c-41 -10 -108 -19 -148 -19 -154 -2 -239 -98 -163 -183 28 -32 32 -33 95 -31 36 2 66 0 66 -3 0 -22 -72 -133 -111 -173 -82 -83 -188 -118 -330 -108 -92 6 -127 22 -202 95 -51 50 -62 57 -98 57 -54 0 -99 -47 -99 -103 0 -33 8 -45 73 -107 84 -81 136 -109 233 -126 80 -14 232 -6 318 16 128 34 250 123 326 239 23 36 45 66 49 66 3 0 29 -16 57 -35 66 -45 302 -114 421 -122 76 -5 86 -4 146 25 75 35 152 101 161 138 15 60 -36 124 -98 124 -15 0 -42 -14 -63 -33 -61 -54 -85 -67 -124 -67 -62 0 -188 38 -296 89 -99 48 -126 71 -82 71 33 0 89 62 89 100 0 65 -43 110 -105 109 -22 -1 -74 -10 -115 -19z"/>
</g>
</svg>